<svg height="464pt" viewBox="-28 0 464 464" width="464pt" xmlns="http://www.w3.org/2000/svg"><path d="m0 32h336v432h-336zm0 0" fill="#c69c6d"/><path d="m32 432v-368h272v304l-64 64zm0 0" fill="#e6e6e6"/><path d="m208 56-8-56h-64l-8 56-48 16v24h176v-24zm0 0" fill="#ffcd34"/><path d="m376 96h32v248h-32zm0 0" fill="#2f7a92"/><path d="m376 344 16 64 16-64zm0 0" fill="#53a2ab"/><path d="m376 48h32v48h-32zm0 0" fill="#53a2ab"/><g fill="#226c8a"><path d="m96 168h-32c-4.417969 0-8-3.582031-8-8v-32c0-4.417969 3.582031-8 8-8h32c4.417969 0 8 3.582031 8 8v32c0 4.417969-3.582031 8-8 8zm-24-16h16v-16h-16zm0 0"/><path d="m96 232h-32c-4.417969 0-8-3.582031-8-8v-32c0-4.417969 3.582031-8 8-8h32c4.417969 0 8 3.582031 8 8v32c0 4.417969-3.582031 8-8 8zm-24-16h16v-16h-16zm0 0"/><path d="m96 296h-32c-4.417969 0-8-3.582031-8-8v-32c0-4.417969 3.582031-8 8-8h32c4.417969 0 8 3.582031 8 8v32c0 4.417969-3.582031 8-8 8zm-24-16h16v-16h-16zm0 0"/><path d="m96 360h-32c-4.417969 0-8-3.582031-8-8v-32c0-4.417969 3.582031-8 8-8h32c4.417969 0 8 3.582031 8 8v32c0 4.417969-3.582031 8-8 8zm-24-16h16v-16h-16zm0 0"/><path d="m120 120h136v16h-136zm0 0"/><path d="m120 152h48v16h-48zm0 0"/><path d="m120 184h136v16h-136zm0 0"/><path d="m120 216h48v16h-48zm0 0"/><path d="m120 248h136v16h-136zm0 0"/><path d="m120 280h48v16h-48zm0 0"/><path d="m120 312h136v16h-136zm0 0"/><path d="m120 344h48v16h-48zm0 0"/></g><path d="m304 368h-64v64" fill="#ccc"/></svg>