<svg height="480pt" viewBox="0 -8 480 480" width="480pt" xmlns="http://www.w3.org/2000/svg"><path d="m216 232h48v40h-48zm0 0" fill="#4d4d4d"/><path d="m360 120c0 66.273438-53.726562 120-120 120s-120-53.726562-120-120 53.726562-120 120-120 120 53.726562 120 120zm0 0" fill="#666"/><path d="m328 120c0 48.601562-39.398438 88-88 88s-88-39.398438-88-88 39.398438-88 88-88 88 39.398438 88 88zm0 0" fill="#e6e6e6"/><path d="m136 272h208v152h-208zm0 0" fill="#ffcd34"/><path d="m88 232h48v232h-48zm0 0" fill="#fbb03b"/><path d="m40 232h48v232h-48zm0 0" fill="#ffcd34"/><path d="m392 232h48v232h-48zm0 0" fill="#ffcd34"/><path d="m344 232h48v232h-48zm0 0" fill="#fbb03b"/><path d="m440 272h40v152h-40zm0 0" fill="#fbb03b"/><path d="m0 272h40v152h-40zm0 0" fill="#fbb03b"/><path d="m240 96c-3.699219 0-7.300781.898438-10.5 2.5l.199219-.199219-24-24-11.300781 11.300781 24 24 .203124-.203124c-1.601562 3.300781-2.5 6.902343-2.5 10.5 0 13.300781 10.699219 24 24 24 13.296876 0 24-10.699219 24-24 0-13.296876-10.800781-23.898438-24.101562-23.898438zm0 0" fill="#226c8a"/><path d="m208 160.5h64v15h-64zm0 0" fill="#999"/><g fill="#ed242d"><path d="m152 112h16v16h-16zm0 0"/><path d="m172.074219 63.433594 11.3125-11.3125 11.316406 11.3125-11.316406 11.3125zm0 0"/><path d="m232 32h16v16h-16zm0 0"/><path d="m285.25 63.390625 11.3125-11.3125 11.3125 11.3125-11.3125 11.316406zm0 0"/><path d="m312 112h16v16h-16zm0 0"/><path d="m285.292969 176.570312 11.316406-11.3125 11.3125 11.3125-11.3125 11.316407zm0 0"/><path d="m172.117188 176.609375 11.3125-11.316406 11.316406 11.316406-11.316406 11.3125zm0 0"/></g></svg>