<svg height="480pt" viewBox="0 -16 480 480" width="480pt" xmlns="http://www.w3.org/2000/svg"><path d="m136 104h48v88h-48zm0 0" fill="#ed242d"/><g fill="#fbb03b"><path d="m392 40h24v88h-24zm0 0"/><path d="m64 40h24v88h-24zm0 0"/><path d="m64 168h32v272h-32zm0 0"/><path d="m384 168h32v272h-32zm0 0"/></g><path d="m472 120h-464c-4.417969 0-8 3.582031-8 8v32c0 3.667969 2.496094 6.867188 6.054688 7.761719l32 8c.636718.15625 1.289062.238281 1.945312.238281h392c.539062 0 1.074219-.054688 1.601562-.160156l40-8c3.722657-.761719 6.398438-4.039063 6.398438-7.839844v-32c0-4.417969-3.582031-8-8-8zm0 0" fill="#ffcd34"/><path d="m288 376h64v64h-64zm0 0" fill="#008fcf"/><path d="m224 376h64v64h-64zm0 0" fill="#fbb03b"/><path d="m160 376h64v64h-64zm0 0" fill="#008fcf"/><path d="m288 312h64v64h-64zm0 0" fill="#fbb03b"/><path d="m224 312h64v64h-64zm0 0" fill="#ed242d"/><path d="m128 232h64v64h-64zm0 0" fill="#008fcf"/><path d="m160 192-32 40h64zm0 0" fill="#c0e5e7"/><path d="m160 232h32v64h-32zm0 0" fill="#6cbdbd"/><path d="m256 312h32v64h-32zm0 0" fill="#bf0001"/><path d="m192 376h32v64h-32zm0 0" fill="#6cbdbd"/><path d="m256 376h32v64h-32zm0 0" fill="#f37720"/><path d="m320 312h32v64h-32zm0 0" fill="#f37720"/><path d="m288 248h64v64h-64zm0 0" fill="#008fcf"/><path d="m320 248h32v64h-32zm0 0" fill="#6cbdbd"/><path d="m320 376h32v64h-32zm0 0" fill="#6cbdbd"/><path d="m64 384h-32l-16 16v40h48zm0 0" fill="#008fcf"/><path d="m64 0h16v40h-16zm0 0" fill="#ffcd34"/><path d="m400 0h16v40h-16zm0 0" fill="#ffcd34"/><path d="m0 432h480v16h-480zm0 0" fill="#603813"/></svg>