<svg height="472pt" viewBox="-28 0 472 472.55" width="472pt" xmlns="http://www.w3.org/2000/svg"><path d="m248.273438 328.550781h88.601562c6.601562 0 13.199219 1.300781 19.300781 3.898438 36.398438 15.300781 60.097657 51 60.097657 90.5v49.601562h-416v-49.601562c0-39.5 23.703124-75.199219 60.101562-90.5 6.101562-2.597657 12.601562-3.898438 19.300781-3.898438h88.597657" fill="#ffcd34"/><path d="m248.273438 290.25v46.300781c0 22.097657-17.898438 40-40 40-22.097657 0-40-17.902343-40-40v-46.300781" fill="#dfb28b"/><path d="m296.273438 168.550781v47.097657c.703124 43.902343-34.296876 80.203124-78.199219 80.902343h-19.597657c-43.902343-.800781-79-37-78.203124-80.902343v-47.097657" fill="#ecc19c"/><path d="m101.273438 134.949219c.101562-41.597657 27.300781-78.300781 67.203124-90.398438l79.597657.398438c39.300781 12.402343 66 48.800781 66 90zm0 0" fill="#fbb03b"/><path d="m328.273438 416.050781v-87.5h-56v88h-136v-88h-48v87.5l-20 56.5h280zm0 0" fill="#2f7a92"/><path d="m108.273438 128.550781h200c11 0 20 8.898438 20 20 0 11-8.898438 20-20 20h-200c-11 0-20-8.902343-20-20 0-11.101562 8.902343-20 20-20zm0 0" fill="#f37720"/><path d="m184.273438 80.550781v48h48v-48" fill="#f7931e"/><path d="m168.273438 208.050781c-8.5 0-15.5-7-15.5-15.5s7-15.5 15.5-15.5 15.5 7 15.5 15.5-7 15.5-15.5 15.5zm0-16c-.296876 0-.5.199219-.5.5s.203124.5.5.5c.300781 0 .5-.199219.5-.5s-.199219-.5-.5-.5zm0 0" fill="#2f7a92"/><path d="m248.273438 208.050781c-8.5 0-15.5-7-15.5-15.5s7-15.5 15.5-15.5 15.5 7 15.5 15.5-7 15.5-15.5 15.5zm0-16c-.296876 0-.5.199219-.5.5s.203124.5.5.5c.300781 0 .5-.199219.5-.5s-.199219-.5-.5-.5zm0 0" fill="#2f7a92"/><path d="m210.675781 239.648438-4.800781-14.199219 12.5-4.199219-15.398438-15.398438 10.597657-10.601562 32.601562 32.601562zm0 0" fill="#cf9e76"/><path d="m222.476562 271.851562-4-1c-19.902343-5-37-17.101562-48.402343-34.101562l12.5-8.300781c9.300781 13.902343 23.300781 23.800781 39.601562 27.902343l4 1zm0 0" fill="#cf9e76"/><path d="m108.273438 176.550781h12v40h-12c-11 0-20-9-20-20s9-20 20-20zm0 0" fill="#dfb28b"/><path d="m304.273438 216.550781h-8v-40h8c11 0 20 9 20 20s-9 20-20 20zm0 0" fill="#dfb28b"/><path d="m168.476562 44.550781c2.199219-22 21.796876-38 43.796876-35.800781s38 21.800781 35.800781 43.800781-21.800781 38-43.800781 35.800781c-20.398438-2.101562-36-19.300781-36-39.800781 0-1.300781.101562-2.699219.203124-4" fill="#f8cf26"/><g fill="#2f7a92"><path d="m208.375 96.050781c-1.601562 0-3.199219-.101562-4.800781-.199219-24.398438-2.402343-42.800781-22.800781-42.800781-47.300781 0-1.601562.101562-3.199219.203124-4.800781 1.296876-12.601562 7.398438-24 17.199219-32s22.199219-11.8007812 34.800781-10.5c12.597657 1.300781 24 7.398438 32 17.199219s11.796876 22.199219 10.5 34.800781c-1.300781 12.601562-7.402343 24-17.203124 32-8.5 7.101562-19 10.800781-29.898438 10.800781zm-.199219-80c-7.5 0-14.699219 2.597657-20.5 7.300781-6.699219 5.5-10.902343 13.296876-11.800781 21.898438-.101562 1.101562-.199219 2.199219-.199219 3.199219 0 16.800781 12.597657 30.699219 29.300781 32.300781 8.597657.898438 17.097657-1.699219 23.796876-7.199219 6.703124-5.5 10.902343-13.300781 11.800781-21.902343.902343-8.597657-1.699219-17.097657-7.199219-23.796876-5.5-6.703124-13.300781-10.902343-21.898438-11.800781-1.101562 0-2.203124 0-3.300781 0zm0 0"/><path d="m208.375 89.550781c-1.398438 0-2.800781-.101562-4.199219-.199219-21-2.101562-36.902343-19.601562-36.902343-40.800781 0-1.402343.101562-2.699219.203124-4.101562 1.097657-10.898438 6.398438-20.699219 14.796876-27.597657 8.402343-6.902343 19.203124-10.101562 30-9.101562 10.902343 1.101562 20.703124 6.398438 27.601562 14.800781 6.898438 8.398438 10.101562 19.097657 9.101562 30-1.101562 10.898438-6.402343 20.699219-14.800781 27.597657-7.300781 6.203124-16.402343 9.402343-25.800781 9.402343zm-.101562-80c-19.796876 0-36.796876 15-38.796876 35.097657-.101562 1.300781-.203124 2.601562-.203124 3.902343 0 20.097657 15.101562 36.800781 35.101562 38.800781 10.398438 1 20.5-2 28.601562-8.601562 8.097657-6.601562 13.097657-15.898438 14.097657-26.300781 1-10.398438-2-20.5-8.597657-28.597657-6.601562-8.101562-15.902343-13.101562-26.300781-14.101562-1.300781-.101562-2.601562-.199219-3.902343-.199219zm0 0"/><path d="m208.375 97.050781c-1.601562 0-3.300781-.101562-4.898438-.199219-24.902343-2.5-43.703124-23.203124-43.703124-48.300781 0-1.601562.101562-3.300781.203124-4.902343 1.296876-12.898438 7.5-24.5 17.597657-32.699219 10-8.199219 22.601562-12 35.5-10.699219 12.902343 1.300781 24.5 7.5 32.699219 17.601562 8.203124 10 12 22.699219 10.703124 35.5-1.300781 12.898438-7.5 24.5-17.601562 32.699219-8.699219 7.199219-19.300781 11-30.5 11zm-.101562-80c-16.199219 0-29.699219 12.199219-31.296876 28.398438-.101562 1-.203124 2.101562-.203124 3.101562 0 16.300781 12.203124 29.699219 28.402343 31.398438 8.398438.800781 16.597657-1.597657 23.097657-7 6.5-5.300781 10.601562-12.898438 11.402343-21.199219.800781-8.398438-1.601562-16.601562-7-23.101562-5.300781-6.5-12.902343-10.597657-21.199219-11.398438-1.101562-.199219-2.203124-.199219-3.203124-.199219zm0 0"/></g></svg>